<svg width="16" height="16" viewBox="0 0 16 16" fill="none" xmlns="http://www.w3.org/2000/svg">
<path d="M14.8424 4.95547C14.7381 4.85047 14.6139 4.76721 14.4772 4.71048C14.3405 4.65376 14.1938 4.62471 14.0458 4.625H11.7958V4.0625C11.7958 3.01821 11.3809 2.01669 10.6425 1.27827C9.9041 0.539843 8.90258 0.125 7.85829 0.125C6.814 0.125 5.81248 0.539843 5.07406 1.27827C4.33563 2.01669 3.92079 3.01821 3.92079 4.0625V4.625H1.67079C1.37242 4.625 1.08627 4.74353 0.875296 4.95451C0.664318 5.16548 0.545792 5.45163 0.545792 5.75V13.3438C0.545792 14.7148 1.70595 15.875 3.07704 15.875H12.6395C13.3028 15.8752 13.9397 15.6159 14.4142 15.1525C14.653 14.9247 14.8432 14.6509 14.9732 14.3476C15.1032 14.0442 15.1704 13.7177 15.1708 13.3877V5.75C15.1712 5.60244 15.1425 5.45626 15.0861 5.31989C15.0297 5.18352 14.9469 5.05966 14.8424 4.95547V4.95547ZM10.1083 10.8125H8.42079V12.5C8.42079 12.6492 8.36153 12.7923 8.25604 12.8977C8.15055 13.0032 8.00748 13.0625 7.85829 13.0625C7.70911 13.0625 7.56603 13.0032 7.46054 12.8977C7.35505 12.7923 7.29579 12.6492 7.29579 12.5V10.8125H5.60829C5.45911 10.8125 5.31603 10.7532 5.21054 10.6477C5.10505 10.5423 5.04579 10.3992 5.04579 10.25C5.04579 10.1008 5.10505 9.95774 5.21054 9.85225C5.31603 9.74676 5.45911 9.6875 5.60829 9.6875H7.29579V8C7.29579 7.85082 7.35505 7.70774 7.46054 7.60225C7.56603 7.49676 7.70911 7.4375 7.85829 7.4375C8.00748 7.4375 8.15055 7.49676 8.25604 7.60225C8.36153 7.70774 8.42079 7.85082 8.42079 8V9.6875H10.1083C10.2575 9.6875 10.4006 9.74676 10.506 9.85225C10.6115 9.95774 10.6708 10.1008 10.6708 10.25C10.6708 10.3992 10.6115 10.5423 10.506 10.6477C10.4006 10.7532 10.2575 10.8125 10.1083 10.8125ZM10.6708 4.625H5.04579V4.0625C5.04579 3.31658 5.34211 2.60121 5.86955 2.07376C6.397 1.54632 7.11237 1.25 7.85829 1.25C8.60421 1.25 9.31958 1.54632 9.84703 2.07376C10.3745 2.60121 10.6708 3.31658 10.6708 4.0625V4.625Z" fill="white"/>
</svg>
